<?xml version="1.0" encoding="UTF-8" standalone="no"?>
<!-- Created with Inkscape (http://www.inkscape.org/) -->
<svg
   xmlns:dc="http://purl.org/dc/elements/1.1/"
   xmlns:cc="http://creativecommons.org/ns#"
   xmlns:rdf="http://www.w3.org/1999/02/22-rdf-syntax-ns#"
   xmlns:svg="http://www.w3.org/2000/svg"
   xmlns="http://www.w3.org/2000/svg"
   xmlns:sodipodi="http://sodipodi.sourceforge.net/DTD/sodipodi-0.dtd"
   xmlns:inkscape="http://www.inkscape.org/namespaces/inkscape"
   id="svg2440"
   sodipodi:version="0.32"
   inkscape:version="0.46"
   width="2300"
   height="2000"
   version="1.0"
   sodipodi:docname="Bundesrat_Logo.svg"
   inkscape:output_extension="org.inkscape.output.svg.inkscape">
  <metadata
     id="metadata2445">
    <rdf:RDF>
      <cc:Work
         rdf:about="">
        <dc:format>image/svg+xml</dc:format>
        <dc:type
           rdf:resource="http://purl.org/dc/dcmitype/StillImage" />
      </cc:Work>
    </rdf:RDF>
  </metadata>
  <defs
     id="defs2443">
    <inkscape:perspective
       sodipodi:type="inkscape:persp3d"
       inkscape:vp_x="0 : 526.18109 : 1"
       inkscape:vp_y="0 : 1000 : 0"
       inkscape:vp_z="744.09448 : 526.18109 : 1"
       inkscape:persp3d-origin="372.04724 : 350.78739 : 1"
       id="perspective2447" />
  </defs>
  <sodipodi:namedview
     inkscape:window-height="744"
     inkscape:window-width="1280"
     inkscape:pageshadow="2"
     inkscape:pageopacity="0.0"
     guidetolerance="10.0"
     gridtolerance="10.0"
     objecttolerance="10.0"
     borderopacity="1.0"
     bordercolor="#666666"
     pagecolor="#ffffff"
     id="base"
     showgrid="false"
     inkscape:zoom="0.125"
     inkscape:cx="-29.24332"
     inkscape:cy="1463.2776"
     inkscape:window-x="-4"
     inkscape:window-y="-4"
     inkscape:current-layer="layer1" />
  <g
     inkscape:groupmode="layer"
     id="layer1"
     inkscape:label="Logo"
     transform="translate(-4.1244158e-8,1800)"
     sodipodi:insensitive="true">
    <path
       style="fill:#666666"
       d="M 1157.3928,199.37139 C 1157.2367,199.02039 1154.1498,197.23439 1150.5328,195.40239 C 1140.8748,190.50839 1130.4028,182.35329 1118.3048,170.30439 C 1107.3328,159.37529 1106.3008,157.97539 1086.6577,127.39239 C 1083.4888,122.45839 1079.8617,117.74739 1078.5987,116.92439 C 1076.5117,115.56439 1074.0187,115.45539 1051.1208,115.71839 C 1023.7388,116.03339 1014.0778,115.30639 1001.1837,111.96339 C 983.05861,107.26439 970.08569,99.675389 953.10164,83.840389 C 940.34661,71.947288 933.9957,64.874388 931.86467,60.189387 C 929.80264,55.657387 929.87969,54.398387 932.39865,51.408387 C 934.99865,48.322387 938.97366,46.672387 948.26467,44.823286 C 961.60367,42.168286 974.08569,33.942286 990.28061,17.133285 C 1017.5208,-11.139717 1040.2037,-49.104719 1052.6828,-87.308721 C 1075.2268,-156.32962 1093.1107,-300.76263 1090.2068,-390.35264 C 1087.7408,-466.40264 1080.6528,-498.83164 1065.8488,-501.78864 C 1056.8157,-503.59264 1047.5548,-488.23574 1040.6088,-459.93564 C 1036.3907,-442.74664 1035.5028,-434.69964 1036.0497,-418.62664 C 1036.5877,-402.82664 1038.3608,-391.59174 1043.9668,-368.44974 C 1046.0928,-359.67664 1047.8768,-350.53373 1047.9308,-348.13163 C 1048.0177,-344.31663 1047.7228,-343.50163 1045.5868,-341.66663 C 1043.3928,-339.78163 1042.6348,-339.62063 1038.1687,-340.08663 C 1022.3377,-341.73863 1006.6307,-350.91263 978.36461,-375.01664 C 962.96067,-388.15164 959.0657,-390.77764 954.97768,-390.77764 C 952.01865,-390.77764 951.82867,-390.57864 948.67966,-384.18964 C 940.27861,-367.13974 917.75172,-329.13773 900.69568,-303.24263 C 887.27166,-282.86263 877.97966,-270.21063 868.21662,-259.01973 C 864.34265,-254.57763 860.22864,-249.09663 859.07465,-246.83953 C 852.99667,-234.94363 857.75369,-225.86763 870.06766,-225.86763 C 876.39864,-225.86763 878.16366,-226.65563 891.77168,-235.56363 C 914.6277,-250.52663 931.62371,-257.83773 945.72861,-258.77263 C 954.6037,-259.36063 958.63261,-258.47463 969.0017,-253.65463 L 976.66261,-250.09363 L 995.81364,-250.05363 C 1013.3457,-250.01663 1015.3848,-249.85553 1019.9368,-248.15963 C 1026.0748,-245.87263 1034.4497,-239.99263 1039.2477,-234.60353 C 1047.8848,-224.90263 1052.2167,-209.35563 1050.4447,-194.42353 C 1048.7207,-179.89763 1043.5817,-164.27762 1036.7568,-152.81672 C 1033.4297,-147.23072 1027.9267,-140.86182 1026.4257,-140.86182 C 1025.9868,-140.86182 1025.0408,-142.26472 1024.3228,-143.97872 C 1020.2068,-153.81772 1006.1157,-170.47363 998.99462,-173.91563 C 992.36065,-177.12363 989.74371,-176.27063 985.18565,-169.41272 C 980.8677,-162.91662 973.51867,-155.91362 967.87462,-152.91872 C 957.56364,-147.44772 947.11666,-146.16072 924.74165,-147.60182 C 906.15972,-148.79972 894.41461,-150.25472 875.37368,-153.71782 C 858.99661,-156.69662 847.8357,-157.06862 839.7137,-154.90562 C 821.67971,-150.10472 802.84769,-132.24572 794.89069,-112.40072 C 792.30564,-105.95372 792.19969,-105.23382 792.58164,-96.688721 C 792.91269,-89.270721 793.43862,-86.566721 795.64662,-80.93372 C 799.66265,-70.68272 803.90861,-64.128719 812.66164,-54.661719 C 834.9826,-30.521618 846.55062,-8.7237164 844.72572,5.7572844 C 843.89665,12.331285 841.2166,21.739285 836.85066,33.398386 C 831.94967,46.486387 831.8086,49.603387 835.77863,57.042387 C 840.05265,65.050388 846.14965,69.221388 858.50065,72.586388 C 862.16371,73.584388 866.22765,74.947388 867.53267,75.615388 L 869.90666,76.828388 L 867.95863,80.300388 C 864.91366,85.727289 854.60867,94.774389 846.92567,98.766389 C 830.53969,107.28039 810.12765,108.27439 796.30465,101.23129 C 790.74762,98.400389 783.94568,90.764389 774.56866,76.833388 C 769.72164,69.631388 764.05965,62.116387 761.98766,60.133387 C 759.91566,58.151287 753.97565,54.289387 748.78665,51.551287 C 733.51666,43.495286 728.54066,37.801286 723.45366,22.561285 C 719.01366,9.2592846 719.71866,0.31428407 726.88566,-21.019617 L 730.43666,-31.590718 L 730.07566,-42.660718 C 729.77666,-51.870719 729.38366,-54.485719 727.74166,-58.213719 C 725.42666,-63.472719 722.19166,-66.473819 717.99266,-67.26072 C 708.83766,-68.97572 703.89966,-57.910719 697.53966,-21.429717 C 691.98566,10.428285 686.67565,25.645285 677.80665,35.115286 C 672.31365,40.979286 667.15465,42.986386 656.43265,43.430286 C 648.53264,43.757286 647.53165,43.987286 645.60064,45.915287 C 643.04165,48.471387 642.20864,52.309287 642.80064,58.825387 C 643.34464,64.819288 646.22764,70.663288 651.89564,77.260388 C 656.79366,82.961388 659.95765,90.208389 659.15065,93.876389 C 656.99465,103.68339 633.29665,104.09639 613.17264,94.678389 C 600.98664,88.975389 591.67664,81.476388 585.46164,72.356388 C 578.55064,62.216387 577.08864,54.396387 579.95364,42.913286 C 581.88464,35.178286 581.44264,29.465286 578.58064,25.131285 C 567.94864,9.0363845 570.63164,-13.529717 584.94564,-28.417717 C 589.28864,-32.933618 591.88964,-34.662718 601.65265,-39.522718 C 616.26265,-46.796718 621.73364,-50.433719 627.62864,-56.792719 C 635.51464,-65.299719 641.96864,-81.66182 640.50764,-89.441721 C 639.71464,-93.660721 634.79264,-98.693721 630.21964,-99.961821 C 624.98964,-101.41182 617.11264,-101.09582 613.09864,-99.275821 C 610.98564,-98.316721 605.36765,-93.471721 599.05464,-87.163721 C 587.80764,-75.92472 583.35764,-72.93572 574.50564,-70.67072 C 569.51864,-69.39472 568.60464,-69.40772 560.55064,-70.86872 C 555.81064,-71.72972 549.18964,-72.43272 545.83764,-72.43272 C 540.31364,-72.43272 539.43864,-72.18872 536.47564,-69.82272 C 532.62064,-66.74472 528.24664,-58.985719 526.42164,-51.989819 C 525.62764,-48.943719 525.11964,-43.275718 525.11964,-37.441718 C 525.11964,-26.837617 524.24064,-23.793717 520.93864,-22.965717 C 516.12264,-21.758717 500.73664,-27.720717 491.84363,-34.239718 C 486.23264,-38.353718 476.65864,-48.775719 473.31364,-54.411719 C 469.44464,-60.930719 465.79663,-71.86272 464.80863,-79.89372 C 462.79063,-96.301721 470.68064,-111.24072 496.55964,-140.01182 C 504.81763,-149.19272 507.01063,-152.88672 509.55264,-161.90262 C 513.11564,-174.53663 517.19464,-180.66363 526.42065,-187.23873 C 532.50564,-191.57463 538.35564,-193.90263 546.47464,-195.21873 C 557.61864,-197.02463 568.99064,-195.81763 602.15564,-189.31263 C 628.27664,-184.18953 640.48364,-182.86463 649.73764,-184.14963 C 658.10865,-185.31263 661.06466,-186.73763 673.24965,-195.48063 C 678.64765,-199.35363 694.06966,-209.15563 707.51966,-217.26153 C 735.33665,-234.02563 737.10266,-235.55963 746.34566,-250.98063 C 749.34565,-255.98763 761.15966,-278.49263 772.59863,-300.99173 C 801.79261,-358.41364 812.10765,-377.45164 828.38168,-403.95364 C 836.41665,-417.03764 838.1737,-420.87064 838.87666,-426.84774 C 839.26865,-430.17664 839.02769,-432.10964 837.93366,-434.41174 C 835.24664,-440.06764 829.17771,-442.35374 810.58965,-444.71064 C 804.91969,-445.42974 796.87666,-446.99574 792.71566,-448.18974 C 782.71863,-451.05864 770.56167,-457.02864 766.85062,-460.89174 C 764.15365,-463.69774 764.01365,-464.07164 765.37566,-464.83764 C 777.45462,-471.62774 809.11565,-501.81564 836.5877,-532.73664 C 886.70371,-589.14465 924.99863,-651.45665 953.00765,-722.17065 C 966.97164,-757.42466 970.3186,-773.47266 969.08365,-799.23566 C 967.13969,-839.78864 953.64168,-872.53665 935.53064,-880.63965 C 930.07665,-883.07965 921.9026,-883.05365 916.36865,-880.57965 C 910.28661,-877.85865 903.20468,-870.14565 898.58566,-861.20965 C 890.26166,-845.10764 872.3537,-801.19264 831.54065,-696.79665 C 776.47367,-555.94265 753.95166,-502.23164 724.88966,-442.45964 C 684.34965,-359.08164 649.33064,-322.50463 597.19664,-309.08663 C 572.33364,-302.68663 539.45864,-301.36373 529.00664,-306.34163 C 527.37864,-307.11663 525.86364,-308.22763 525.63964,-308.80863 C 525.41664,-309.39063 527.55465,-311.88263 530.39164,-314.34663 C 540.90364,-323.47763 554.54764,-341.89263 563.71764,-359.32564 C 569.02764,-369.41974 571.07264,-374.25864 602.15064,-450.28064 C 664.82565,-603.59465 739.43265,-790.23966 763.04166,-852.78065 C 771.77669,-875.91865 778.97469,-897.43165 780.89166,-906.12865 C 782.94365,-915.43764 782.44363,-925.75765 779.75868,-929.51766 C 776.97162,-933.42066 772.15665,-935.66066 766.55465,-935.66066 C 760.47266,-935.66066 755.22665,-932.21966 749.31966,-924.35566 C 743.03965,-915.99664 738.67165,-907.22065 725.11566,-875.73265 C 644.41265,-688.27365 546.69264,-472.42974 494.97564,-367.40064 C 465.92463,-308.40173 450.96863,-281.67863 437.88563,-265.39463 C 414.62162,-236.43863 387.89362,-216.06863 360.41962,-206.35563 C 332.45162,-196.46863 299.21862,-194.98873 274.32161,-202.52063 C 257.71761,-207.54463 239.55261,-219.70563 236.67061,-227.72753 C 235.54061,-230.87163 236.91661,-231.80563 243.98861,-232.69463 C 251.00961,-233.57763 254.86661,-235.11463 262.13961,-239.92563 C 276.48361,-249.41463 300.06462,-279.18173 316.48462,-308.52463 C 345.80062,-360.91664 474.32964,-622.67265 620.45965,-927.58566 C 628.30264,-943.94865 638.71664,-965.17966 643.60265,-974.76366 C 654.24965,-995.64666 656.19965,-1001.1787 656.19965,-1010.5107 C 656.19965,-1018.1977 655.04264,-1021.6777 651.32964,-1025.1607 C 643.89364,-1032.1377 634.86564,-1026.9207 622.22165,-1008.3407 C 612.90164,-994.64566 610.35665,-990.38666 553.55464,-893.44465 C 433.62163,-688.75765 368.30462,-578.55965 347.81763,-546.33665 C 335.10963,-526.34974 313.47762,-498.07574 297.73962,-480.88264 C 260.15261,-439.82174 223.50961,-418.42664 180.39861,-412.36964 C 166.92861,-410.47664 138.3836,-411.13464 126.9616,-413.60174 C 100.36361,-419.34464 80.646598,-430.95364 67.776597,-448.44774 C 64.043595,-453.52374 61.237595,-459.91664 62.284596,-460.96264 C 62.543596,-461.22064 64.952595,-460.79464 67.638597,-460.01464 C 71.229597,-458.97264 74.827597,-458.68264 81.2346,-458.91864 C 89.461602,-459.22364 90.353603,-459.44174 97.207603,-462.83364 C 110.4956,-469.40964 119.5866,-479.39664 139.5596,-509.35964 C 162.18161,-543.29774 212.31061,-616.55465 364.67262,-838.32965 C 545.91364,-1102.1416 542.60064,-1097.2406 550.54764,-1113.2846 C 556.97964,-1126.2686 558.67464,-1132.4646 558.18164,-1141.1796 C 557.90564,-1146.0596 557.42764,-1147.6376 555.42964,-1150.2526 C 546.87464,-1161.4536 533.98064,-1158.0336 518.69464,-1140.5076 C 516.05164,-1137.4776 491.44464,-1104.2056 464.01163,-1066.5696 C 369.66162,-937.12566 324.26062,-875.85865 310.94062,-860.00665 C 301.06562,-848.25364 284.21962,-827.11965 250.63761,-784.35166 C 234.30161,-763.54666 217.65561,-743.13766 213.64761,-738.99766 C 193.83261,-718.53365 163.62961,-702.70765 133.1936,-696.84165 C 93.194601,-689.13265 61.722595,-695.45865 32.531593,-717.07465 C 11.473592,-732.66766 -5.0854105,-756.81566 1.4415902,-762.41466 C 3.9375904,-764.55466 5.8525905,-764.90666 19.179592,-765.67066 C 35.217593,-766.59066 38.138593,-767.28166 49.745595,-772.90366 C 76.222597,-785.72766 99.698603,-809.87365 149.3066,-875.30765 C 173.04161,-906.61365 175.35961,-909.34665 196.5526,-931.01666 C 225.21861,-960.32866 249.06161,-986.89266 295.71162,-1041.4927 C 326.57662,-1077.6166 331.88562,-1083.4716 360.84562,-1113.3246 C 431.72163,-1186.3866 476.11663,-1233.3016 483.11063,-1242.5296 C 497.05063,-1260.9266 501.30664,-1277.6736 494.73763,-1288.2836 C 491.15464,-1294.0716 487.70764,-1296.0836 481.37163,-1296.0826 C 477.36164,-1296.0816 474.94064,-1295.4976 470.74764,-1293.5166 C 464.19663,-1290.4206 461.63062,-1288.4606 446.81263,-1275.2296 C 440.49363,-1269.5866 419.04462,-1250.8356 399.14863,-1233.5606 C 319.02262,-1163.9906 312.64862,-1158.1246 286.95762,-1130.3226 C 231.56461,-1070.3766 212.67261,-1055.7706 173.83661,-1042.8657 C 155.93761,-1036.9177 147.4966,-1035.5697 128.0526,-1035.5557 C 109.4366,-1035.5407 103.8326,-1036.3447 88.493601,-1041.2277 C 65.469595,-1048.5577 39.497594,-1065.5216 24.986591,-1082.7096 C 19.998592,-1088.6186 16.124591,-1095.5126 16.124591,-1098.4816 C 16.124591,-1101.7316 19.110592,-1103.1666 32.847593,-1106.5196 C 59.870595,-1113.1156 77.565594,-1120.3546 95.3226,-1132.0796 C 101.98761,-1136.4796 107.3796,-1141.4916 126.72861,-1161.2716 C 168.56361,-1204.0386 202.72861,-1237.6966 213.97361,-1247.2226 C 256.31961,-1283.0926 277.76861,-1301.9576 313.98162,-1335.1856 C 349.69762,-1367.9576 381.26562,-1398.0647 416.46462,-1432.9287 C 464.78363,-1480.7857 488.51964,-1506.6937 488.51964,-1511.5767 C 488.51964,-1513.1937 486.64964,-1515.0417 479.79564,-1520.1967 C 455.44063,-1538.5147 446.21963,-1550.0057 441.69363,-1567.6747 C 438.41363,-1580.4797 438.59163,-1598.6867 442.04363,-1603.4007 C 443.05463,-1604.7817 443.71763,-1604.2117 449.25063,-1597.2077 C 460.10362,-1583.4667 470.12164,-1575.4717 482.35663,-1570.7867 C 487.55463,-1568.7967 489.25564,-1568.5867 500.43663,-1568.5577 C 514.34864,-1568.5207 521.51465,-1569.7357 536.05164,-1574.5927 C 548.26564,-1578.6737 557.36064,-1582.8757 578.74364,-1594.3177 C 618.51165,-1615.5967 662.36065,-1635.9457 682.19465,-1642.3267 C 712.40765,-1652.0467 743.95666,-1653.1307 768.52464,-1645.2917 C 782.30563,-1640.8947 791.63864,-1635.3227 800.93463,-1625.9417 C 814.96164,-1611.7867 822.36565,-1591.1547 821.06661,-1569.8457 C 819.44365,-1543.2477 806.90167,-1513.3377 788.04167,-1491.0867 C 777.50767,-1478.6597 765.12365,-1469.6957 741.74166,-1457.5737 C 718.53866,-1445.5447 714.46966,-1441.8467 714.59066,-1432.9027 C 714.68766,-1425.7307 718.97166,-1418.5937 735.60866,-1397.8847 C 761.64165,-1365.4796 763.70666,-1361.6366 779.26963,-1316.6517 C 789.99269,-1285.6556 795.76063,-1273.4556 801.14462,-1270.3806 C 802.56165,-1269.5706 811.09166,-1269.2846 835.79466,-1269.2166 C 882.04468,-1269.0906 891.94265,-1267.8686 924.76971,-1258.2386 C 950.29465,-1250.7496 958.85264,-1248.6906 969.00369,-1247.5946 C 978.37964,-1246.5826 985.91766,-1247.3416 991.16066,-1249.8256 C 998.85462,-1253.4716 1006.1548,-1263.2866 1009.8408,-1274.9386 C 1012.8337,-1284.4026 1014.2337,-1292.9066 1017.0977,-1319.0347 C 1023.1597,-1374.3436 1027.8827,-1389.4067 1054.4097,-1438.0417 C 1065.7598,-1458.8537 1068.9798,-1466.5787 1068.9988,-1473.0457 C 1069.0208,-1480.2437 1068.4888,-1480.6017 1055.3848,-1482.2137 C 1034.0517,-1484.8367 1008.8048,-1494.2027 990.99169,-1506.1007 C 979.04771,-1514.0797 966.91567,-1528.0747 961.27262,-1540.3857 C 957.15463,-1549.3677 959.79863,-1550.5167 971.36265,-1544.7707 C 981.07171,-1539.9457 989.40569,-1538.0817 999.27261,-1538.5277 C 1007.8438,-1538.9147 1012.2477,-1540.8687 1012.6728,-1544.4727 C 1013.2797,-1549.6117 1007.0437,-1552.4987 964.32066,-1566.8587 C 950.04165,-1571.6587 934.76765,-1576.9677 930.37665,-1578.6567 C 913.81067,-1585.0317 902.72965,-1592.1377 892.55062,-1602.9147 C 887.45366,-1608.3107 882.51863,-1615.7027 884.01371,-1615.7027 C 884.3377,-1615.7027 887.07263,-1614.7167 890.09061,-1613.5107 C 904.85063,-1607.6127 934.34767,-1603.2157 1001.3457,-1596.9257 C 1021.6027,-1595.0247 1032.2388,-1594.3967 1039.4917,-1594.6757 C 1048.8778,-1595.0377 1049.9237,-1595.2557 1055.1537,-1597.9457 C 1059.9267,-1600.3997 1061.1497,-1601.5207 1063.3967,-1605.5027 C 1065.9247,-1609.9827 1066.0348,-1610.5877 1066.0348,-1620.0127 C 1066.0348,-1629.3517 1065.9148,-1630.0287 1063.6608,-1633.4327 C 1059.3957,-1639.8737 1047.8308,-1645.6167 1034.1157,-1648.1047 C 1026.0207,-1649.5737 1002.7548,-1649.5657 993.68568,-1648.0907 C 974.72371,-1645.0067 955.58971,-1635.7947 936.23168,-1620.4287 C 926.1806,-1612.4497 925.89464,-1612.3767 920.13061,-1616.3037 C 914.14371,-1620.3847 903.01661,-1630.9207 899.1717,-1636.1517 C 894.58665,-1642.3897 889.68267,-1652.8737 887.23969,-1661.6627 C 884.15171,-1672.7677 883.3957,-1692.4797 885.58867,-1704.6897 C 889.44769,-1726.1817 897.48366,-1741.3257 914.50665,-1759.1877 C 932.64169,-1778.2167 956.58568,-1791.6997 982.90067,-1797.7007 C 993.80367,-1800.1877 1012.2187,-1800.7297 1026.0297,-1798.9707 C 1049.0048,-1796.0457 1082.2388,-1789.8187 1157.9597,-1774.2537 C 1220.1117,-1761.4787 1235.0788,-1759.4947 1249.1537,-1762.1677 C 1257.2627,-1763.7077 1265.2137,-1766.7287 1274.2297,-1771.6947 C 1283.8837,-1777.0127 1285.9848,-1777.6007 1288.5328,-1775.7017 C 1294.2717,-1771.4217 1294.1037,-1755.4517 1288.1837,-1742.5377 C 1284.9448,-1735.4717 1282.7257,-1732.9847 1272.8497,-1725.3467 C 1258.0467,-1713.8977 1257.0537,-1710.9787 1263.9787,-1699.2687 C 1290.3937,-1654.6047 1309.7767,-1590.2347 1317.5188,-1521.4577 C 1323.1587,-1471.3617 1327.5428,-1412.0987 1331.2037,-1336.4606 C 1334.1097,-1276.4286 1334.8937,-1272.5456 1344.5058,-1270.5526 C 1351.3198,-1269.1396 1359.5967,-1270.4146 1378.0048,-1275.7116 C 1414.2447,-1286.1406 1425.1458,-1286.4696 1457.9918,-1278.1266 C 1477.9358,-1273.0616 1482.7468,-1272.4276 1487.1838,-1274.2786 C 1491.6698,-1276.1506 1493.9627,-1281.5946 1496.7227,-1296.9336 C 1502.9038,-1331.2746 1509.9187,-1347.4296 1528.6508,-1370.4626 C 1560.7358,-1409.9147 1565.5507,-1416.8937 1569.1018,-1429.0917 C 1570.8938,-1435.2497 1570.3958,-1443.2177 1568.0147,-1446.4607 C 1565.5908,-1449.7617 1557.9358,-1453.5127 1541.8348,-1459.2887 C 1508.3747,-1471.2907 1486.5038,-1485.2157 1469.7298,-1505.1967 C 1452.8107,-1525.3497 1444.6588,-1545.6627 1443.7608,-1569.9037 C 1442.4618,-1604.9927 1455.8767,-1634.2807 1480.9768,-1651.1567 C 1508.4547,-1669.6307 1551.6137,-1673.2067 1590.5498,-1660.2357 C 1609.5327,-1653.9127 1619.9607,-1648.5657 1658.7218,-1625.2827 C 1710.7327,-1594.0397 1731.0788,-1586.4247 1762.2858,-1586.5207 C 1786.2528,-1586.5947 1799.1108,-1590.6747 1820.5378,-1605.0047 C 1825.8408,-1608.5507 1830.5208,-1611.4527 1830.9388,-1611.4527 C 1833.4357,-1611.4527 1834.0258,-1602.3107 1832.1538,-1592.6137 C 1828.4468,-1573.4047 1819.3868,-1560.9357 1796.1568,-1543.0707 C 1780.7458,-1531.2187 1780.1647,-1528.5047 1790.1917,-1515.2057 C 1800.2638,-1501.8487 1826.3517,-1477.1307 1878.4697,-1431.5617 C 1913.9638,-1400.5277 1937.8077,-1378.2346 2013.3705,-1305.4337 C 2111.8095,-1210.5936 2139.0615,-1184.8986 2165.3455,-1162.1416 C 2182.6664,-1147.1456 2190.1375,-1142.0166 2200.2095,-1138.2096 C 2215.8805,-1132.2866 2231.5375,-1132.2236 2255.3875,-1137.9876 C 2271.5215,-1141.8876 2272.3285,-1141.6426 2270.7875,-1133.3186 C 2266.2525,-1108.8206 2245.7044,-1084.4346 2217.0645,-1069.5606 C 2207.0785,-1064.3746 2194.5465,-1059.8226 2184.0145,-1057.5556 C 2173.6305,-1055.3196 2157.4265,-1055.5026 2145.7345,-1057.9866 C 2120.8995,-1063.2636 2092.8095,-1075.3066 2068.7045,-1091.0096 C 2050.4384,-1102.9106 2045.2375,-1107.5246 1948.2648,-1197.8936 C 1837.4688,-1301.1446 1827.8748,-1309.5777 1808.8308,-1320.4466 C 1799.8668,-1325.5636 1793.0768,-1327.5396 1784.5397,-1327.5166 C 1776.4197,-1327.4946 1771.9707,-1325.8536 1768.3347,-1321.5376 C 1766.1447,-1318.9377 1765.9698,-1318.2307 1766.2658,-1313.1287 C 1766.7998,-1303.9197 1773.3787,-1292.4946 1788.3888,-1274.7086 C 1797.2537,-1264.2036 1872.6458,-1185.6536 2035.4575,-1017.2877 C 2208.7875,-838.04465 2236.7925,-809.38665 2242.0905,-805.84264 C 2253.3485,-798.31066 2262.7195,-795.68766 2282.6605,-794.48566 C 2289.9715,-794.04566 2296.7305,-793.21366 2297.9815,-792.60066 C 2301.4155,-790.91766 2300.6185,-787.74666 2294.4295,-778.46766 C 2274.8515,-749.11866 2252.3555,-731.09166 2226.6965,-724.19265 C 2219.1935,-722.17465 2217.0515,-721.98565 2201.0604,-721.93165 C 2181.2824,-721.86465 2172.7704,-723.04065 2157.8255,-727.90265 C 2136.1335,-734.95866 2116.7895,-746.85466 2093.2355,-767.62466 C 2075.0175,-783.68966 2059.7915,-799.94566 2028.6035,-836.62964 C 1973.1877,-901.81165 1845.7648,-1055.8436 1773.3407,-1145.1986 C 1755.8707,-1166.7536 1745.6877,-1176.1366 1732.4947,-1182.8366 C 1727.4767,-1185.3856 1725.4627,-1185.9156 1719.7278,-1186.1966 C 1713.9967,-1186.4776 1712.4867,-1186.2586 1710.1938,-1184.8156 C 1705.8317,-1182.0716 1704.5687,-1178.7046 1705.0147,-1171.0136 C 1705.3507,-1165.2066 1705.9237,-1163.3236 1709.7348,-1155.4946 C 1715.7877,-1143.0606 1722.9247,-1132.0796 1755.2027,-1085.5346 C 1916.0838,-853.54364 2073.5805,-634.67365 2133.4165,-559.93765 C 2152.4644,-536.14664 2161.0065,-527.16464 2170.5605,-520.87864 C 2185.6055,-510.97974 2200.0185,-506.10164 2224.7075,-502.54964 C 2245.7485,-499.52364 2248.3635,-498.16864 2245.5175,-491.77164 C 2243.2415,-486.65464 2234.7025,-476.18864 2227.9185,-470.19864 C 2214.0855,-457.98464 2195.5845,-447.48064 2177.2275,-441.41764 C 2160.9015,-436.02574 2149.1005,-434.05964 2129.9885,-433.54464 C 2114.9785,-433.14064 2111.6565,-433.30864 2101.8995,-434.96374 C 2075.7755,-439.39664 2051.2095,-450.86174 2030.0625,-468.48964 C 2020.6135,-476.36664 2004.0585,-493.69464 1997.1077,-502.98464 C 1978.3898,-527.99764 1912.7417,-630.38165 1812.0638,-791.57766 C 1756.4887,-880.55865 1689.8247,-988.28966 1670.5678,-1020.2417 C 1660.4878,-1036.9657 1650.6867,-1047.5807 1639.9238,-1053.4307 C 1635.2007,-1055.9986 1627.7158,-1057.0646 1624.9167,-1055.5686 C 1617.3188,-1051.5077 1617.9738,-1033.8377 1626.5418,-1011.7407 C 1632.4938,-996.38866 1663.4287,-938.84765 1830.1368,-633.04265 C 1848.6148,-599.14665 1871.7068,-556.68665 1881.4528,-538.68664 C 1922.3188,-463.20864 2007.7185,-318.12773 2026.0585,-293.02163 C 2038.3195,-276.23773 2057.3935,-266.29963 2086.5785,-261.48863 C 2096.4405,-259.86373 2096.5385,-259.68173 2090.7245,-253.76763 C 2078.1035,-240.92953 2053.3475,-228.32463 2030.8275,-223.26963 C 1999.1457,-216.15863 1954.8077,-221.53363 1924.8577,-236.11663 C 1904.7748,-245.89563 1873.3318,-273.96373 1851.5888,-301.52173 C 1833.6098,-324.30973 1825.0668,-338.61863 1808.0978,-374.37064 C 1759.5157,-476.72364 1591.8267,-849.23564 1564.2287,-916.10965 C 1551.5638,-946.80065 1541.1578,-961.41666 1529.6858,-964.62666 C 1521.3118,-966.97066 1510.3838,-962.86166 1506.6658,-955.97266 C 1504.8018,-952.51966 1504.6807,-951.53066 1505.0607,-942.88666 C 1505.7008,-928.30266 1504.1778,-932.37566 1553.5188,-813.25364 C 1628.1308,-633.11865 1736.5758,-373.55974 1744.7138,-355.63663 C 1753.6118,-336.03663 1767.0947,-320.71663 1784.2798,-310.68063 C 1786.4618,-309.40663 1788.2468,-308.02863 1788.2468,-307.61863 C 1788.2468,-306.60463 1778.0497,-302.04863 1771.0088,-299.91573 C 1755.0928,-295.09663 1736.4358,-293.88463 1722.7068,-296.77663 C 1696.6807,-302.25973 1674.8247,-312.23863 1656.3707,-327.06263 C 1646.5548,-334.94763 1639.7238,-342.11973 1631.2078,-353.47863 C 1620.3747,-367.92964 1617.1848,-374.19864 1589.3058,-435.83064 C 1561.0038,-498.39864 1494.1247,-649.54565 1439.9827,-773.30066 C 1425.9718,-805.32665 1411.6318,-837.33564 1408.1167,-844.43165 C 1389.1868,-882.64665 1371.1838,-898.25864 1355.1118,-890.39565 C 1342.5238,-884.23765 1324.8207,-856.83864 1315.9237,-829.74464 C 1310.6277,-813.61565 1308.6507,-802.21864 1308.7127,-788.17666 C 1308.7587,-777.62966 1309.0677,-775.14766 1311.4247,-766.35366 C 1320.2127,-733.57166 1345.5518,-684.07165 1381.1887,-630.06765 C 1432.6387,-552.09865 1477.8547,-504.08464 1517.5767,-485.23964 C 1525.4558,-481.50164 1529.3358,-480.19364 1539.2007,-477.94764 L 1541.6738,-477.38464 L 1537.4987,-473.10664 C 1529.2028,-464.60864 1518.7058,-458.33064 1505.6597,-454.06564 C 1499.4638,-452.03964 1496.9598,-451.68974 1488.2118,-451.62864 C 1479.5928,-451.56764 1476.5808,-451.92864 1468.9238,-453.94064 C 1462.9628,-455.50774 1458.2907,-456.23664 1455.3048,-456.06564 C 1450.8327,-455.81064 1450.7558,-455.76064 1450.4878,-452.96264 C 1450.3158,-451.17564 1451.0167,-448.48974 1452.3718,-445.73664 C 1453.5588,-443.32764 1464.9807,-425.59664 1477.7538,-406.33574 C 1490.5278,-387.07364 1508.8147,-359.34174 1518.3907,-344.70663 C 1581.5867,-248.13363 1615.7998,-202.83563 1631.5568,-194.87473 C 1634.0898,-193.59463 1639.8348,-191.55363 1644.3238,-190.33963 C 1652.0918,-188.23753 1653.5138,-188.13163 1673.7648,-188.13163 C 1693.3558,-188.13263 1695.9558,-188.31163 1706.5347,-190.39363 C 1717.5207,-192.55663 1726.8767,-195.30063 1743.4878,-201.23563 C 1765.2147,-208.99673 1782.6568,-203.03263 1800.6908,-181.67463 C 1808.7668,-172.10963 1810.4588,-171.35463 1825.6978,-170.50763 C 1843.1888,-169.53563 1849.6688,-167.18862 1857.1028,-159.13462 C 1871.1868,-143.87582 1870.8278,-116.41972 1856.1397,-85.608721 C 1852.4458,-77.85982 1850.9728,-75.78572 1844.9628,-69.87272 C 1837.4188,-62.452719 1830.1398,-58.219819 1821.9868,-56.511719 C 1817.9488,-55.665819 1817.0748,-55.734719 1815.0577,-57.053719 C 1813.0758,-58.350719 1812.8308,-58.944719 1813.3297,-61.248719 C 1815.0298,-69.10872 1815.4118,-76.31172 1814.6108,-85.430721 C 1813.6057,-96.883821 1811.8088,-101.76272 1807.6678,-104.28372 C 1802.6648,-107.33072 1797.0998,-106.43872 1788.3757,-101.19272 C 1777.2827,-94.520721 1762.3738,-92.015721 1748.3238,-94.460721 C 1737.5318,-96.339721 1730.4738,-99.475721 1717.5587,-108.13072 C 1704.8437,-116.65072 1698.0508,-119.67672 1690.3627,-120.24272 C 1683.7218,-120.73182 1679.3627,-119.66872 1673.9507,-116.24172 C 1661.6798,-108.46972 1668.1518,-100.95072 1707.2138,-77.59972 C 1736.3448,-60.184719 1751.6247,-46.063718 1751.6538,-36.527818 C 1751.6578,-35.236718 1751.0227,-31.692718 1750.2427,-28.652717 C 1748.3218,-21.167717 1749.0648,-17.958717 1754.2247,-11.438717 C 1760.4048,-3.6316161 1762.8167,0.65328409 1764.5527,6.9052844 C 1767.9077,18.988285 1767.3927,31.580386 1762.9637,45.724387 C 1756.7627,65.528388 1745.2777,78.437288 1725.9478,87.328389 C 1713.5707,93.020389 1703.8507,95.263389 1701.1738,93.044389 C 1700.1638,92.207389 1700.2108,91.394389 1701.4878,87.593389 C 1704.4618,78.743388 1705.8118,70.159388 1706.2767,57.149387 C 1706.6638,46.337387 1706.4928,43.041286 1705.3428,39.091286 C 1703.3287,32.169286 1702.3768,31.746286 1689.0747,31.870286 C 1680.0408,31.955286 1676.7817,31.629286 1671.2418,30.088286 C 1661.9727,27.511286 1655.1837,23.721285 1649.0007,17.672285 C 1642.7218,11.530285 1641.0698,8.3852845 1632.5367,-13.677717 C 1619.6418,-47.015818 1613.8647,-54.954719 1603.2448,-53.935719 C 1595.0227,-53.146719 1594.2258,-49.316719 1598.8567,-32.850718 C 1603.0087,-18.087717 1604.1378,-9.6977165 1602.9228,-2.6177161 C 1601.6067,5.0542843 1598.5907,9.5203846 1589.5118,17.242285 C 1580.6348,24.791285 1579.4608,26.533285 1577.1378,35.604386 C 1569.5557,65.213288 1541.0958,88.450389 1508.4848,91.658389 C 1501.4668,92.349289 1489.0578,90.952389 1481.4958,88.619389 C 1475.9378,86.904389 1470.7628,83.471289 1470.7628,81.499388 C 1470.7628,79.870388 1473.9758,77.390388 1481.4018,73.287388 C 1486.0918,70.697388 1490.6307,67.144388 1495.9827,61.875287 C 1505.2507,52.751387 1508.2137,47.604387 1508.2137,40.631286 L 1508.2137,35.907286 L 1500.4068,27.640286 C 1487.1478,13.600285 1482.1098,5.6292844 1480.1378,-4.4287162 C 1478.4147,-13.214717 1480.0818,-17.925717 1495.0167,-46.485818 C 1511.9798,-78.92382 1517.7107,-90.977721 1521.3898,-101.95972 C 1526.2618,-116.49982 1525.4918,-129.12072 1519.1978,-137.87272 C 1513.8888,-145.25582 1501.5938,-151.83182 1483.1478,-157.15362 C 1467.1838,-161.76062 1459.2307,-163.05462 1443.9507,-163.53262 C 1425.4858,-164.11062 1418.6147,-162.80162 1399.0258,-154.97562 C 1386.8318,-150.10382 1384.2638,-149.36372 1379.5668,-149.37382 C 1369.8208,-149.39472 1361.7578,-152.92672 1340.6447,-166.42272 C 1334.5088,-170.34463 1332.9288,-170.98163 1329.2628,-171.00763 C 1323.3117,-171.05163 1321.9137,-168.99362 1319.9768,-157.34362 C 1318.4877,-148.39172 1316.8257,-144.26272 1314.7097,-144.26272 C 1312.3417,-144.26272 1298.4888,-153.36772 1292.5697,-158.81562 C 1284.8837,-165.88762 1279.7547,-173.59163 1276.9517,-182.27363 C 1273.0427,-194.38263 1273.4948,-211.14553 1277.9797,-220.38953 C 1283.8688,-232.52563 1302.1308,-245.88263 1318.6947,-250.16863 C 1325.5807,-251.95063 1328.6357,-253.62163 1336.8068,-260.07173 C 1348.5958,-269.37963 1357.0447,-272.26973 1370.3488,-271.54363 C 1382.0028,-270.90773 1393.7958,-266.75863 1415.9207,-255.50863 C 1436.8828,-244.85063 1442.2078,-242.86863 1449.8818,-242.86863 C 1456.6658,-242.86863 1458.8458,-244.48463 1458.8458,-249.51463 C 1458.8458,-257.33463 1453.4087,-268.07463 1442.6287,-281.54563 C 1433.7847,-292.59863 1424.0667,-306.15963 1403.9468,-335.52363 C 1374.0778,-379.11564 1365.1458,-390.77764 1361.6238,-390.77764 C 1360.6558,-390.77764 1357.7727,-388.67764 1355.1058,-386.03164 C 1344.9638,-375.96664 1327.3247,-363.25574 1313.7177,-356.20563 C 1300.1477,-349.17463 1281.2717,-343.82563 1276.4677,-345.65063 C 1273.6088,-346.73573 1273.5687,-347.98663 1276.1477,-355.56363 C 1278.9047,-363.66464 1282.2808,-378.24064 1284.1067,-389.92774 C 1286.3557,-404.31564 1286.3137,-451.18264 1284.0417,-463.45664 C 1279.6048,-487.42774 1271.4127,-503.82164 1261.2937,-508.97664 C 1256.2317,-511.55574 1252.5227,-511.19264 1250.0088,-507.87264 C 1240.7307,-495.61574 1232.1828,-449.27374 1229.8788,-398.73364 C 1226.8008,-331.21663 1240.1217,-206.86863 1258.5057,-131.51172 C 1269.0797,-88.164721 1287.8457,-44.940718 1310.5388,-11.661617 C 1320.0408,2.2732842 1326.3387,9.9702846 1336.2788,19.798285 C 1349.5048,32.874286 1360.0458,38.967286 1378.7727,44.361286 C 1383.6527,45.767287 1388.3878,47.659287 1389.2958,48.566387 C 1391.4518,50.719287 1390.5378,53.617287 1384.9607,62.300387 C 1370.3518,85.050389 1342.8947,105.62039 1315.4257,114.39439 C 1307.6617,116.87439 1305.9417,117.11339 1295.8488,117.12129 C 1286.5737,117.12739 1282.5048,116.66129 1270.6997,114.23939 C 1254.7237,110.96129 1251.9457,111.07239 1247.2668,115.17439 C 1245.6108,116.62739 1240.4877,124.17239 1235.8637,131.96739 C 1222.5127,154.47729 1214.4937,164.15339 1198.8158,176.66929 C 1186.6657,186.36939 1166.8368,198.30939 1162.8788,198.30939 C 1162.2797,198.30939 1161.7907,198.69149 1161.7907,199.15939 C 1161.7907,200.13839 1157.8197,200.33039 1157.3928,199.37139 z"
       id="path2451" />
  </g>
</svg>
